<svg xmlns="http://www.w3.org/2000/svg" viewBox="0 0 100 100" width="100" height="100">
  <rect width="100" height="100" fill="#6366f1"/>
  <g transform="translate(50,50) scale(0.74) translate(-50,-50)">
    <g stroke-width="4.5" stroke-linecap="round" fill="none">
    <path d="M22.0,28.0 A60,60 0 0,1 52.9,18.4" stroke="#ff66c4"/>
    <path d="M75.0,22.0 A60,60 0 0,1 76.8,54.4" stroke="#00d4ff"/>
    <path d="M68.0,75.0 A75,75 0 0,1 32.2,48.0" stroke="#ffe866"/>
    <path d="M24.0,78.0 A60,60 0 0,1 17.5,49.9" stroke="#00e676"/>
    </g>
    <g>
    <polygon points="60.4,18.7 45.3,11.6 45.7,26.6" fill="#ff66c4"/>
    <polygon points="74.7,61.6 85.3,48.7 70.7,45.4" fill="#00d4ff"/>
    <polygon points="28.1,41.7 30.7,58.2 42.9,49.5" fill="#ffe866"/>
    <polygon points="18.1,42.4 10.4,57.3 25.4,57.5" fill="#00e676"/>
    </g>
    <g>
    <circle cx="22" cy="28" r="7" fill="#ff66c4"/>
    <circle cx="75" cy="22" r="7" fill="#00d4ff"/>
    <circle cx="68" cy="75" r="7" fill="#ffe866"/>
    <circle cx="24" cy="78" r="7" fill="#00e676"/>
    </g>
  </g>
</svg>
